<?xml version="1.0" encoding="UTF-8"?>
<svg xmlns="http://www.w3.org/2000/svg" xmlns:xlink="http://www.w3.org/1999/xlink" viewBox="0 0 40 40" version="1.1" width="40px" height="40px">
<g id="surface1">
<path style=" fill:#98CCFD;" d="M 6.5 37.5 L 6.5 2.5 L 35 2.5 C 35.273438 2.5 35.5 2.722656 35.5 3 L 35.5 37 C 35.5 37.277344 35.273438 37.5 35 37.5 Z "/>
<path style=" fill:#4788C7;" d="M 35 3 L 35 37 L 7 37 L 7 3 L 35 3 M 35 2 L 6 2 L 6 38 L 35 38 C 35.550781 38 36 37.550781 36 37 L 36 3 C 36 2.449219 35.550781 2 35 2 Z "/>
<path style=" fill:#B6DCFE;" d="M 5 37.5 C 4.726563 37.5 4.5 37.277344 4.5 37 L 4.5 3 C 4.5 2.722656 4.726563 2.5 5 2.5 L 8.5 2.5 L 8.5 37.5 Z "/>
<path style=" fill:#4788C7;" d="M 8 3 L 8 37 L 5 37 L 5 3 L 8 3 M 9 2 L 5 2 C 4.449219 2 4 2.449219 4 3 L 4 37 C 4 37.550781 4.449219 38 5 38 L 9 38 Z "/>
<path style=" fill:#FFFFFF;" d="M 27 15 C 27 17.761719 24.761719 20 22 20 C 19.238281 20 17 17.761719 17 15 C 17 12.238281 19.238281 10 22 10 C 24.761719 10 27 12.238281 27 15 Z "/>
<path style=" fill:#FFFFFF;" d="M 29 28 C 29 24.132813 25.867188 21 22 21 C 18.132813 21 15 24.132813 15 28 Z "/>
</g>
</svg>
